<svg xmlns="http://www.w3.org/2000/svg" xmlns:xlink="http://www.w3.org/1999/xlink" width="500" zoomAndPan="magnify" viewBox="0 0 375 374.999991" height="500" preserveAspectRatio="xMidYMid meet" version="1.2"><defs><clipPath id="ecba27a919"><path d="M 7.949219 78.136719 L 177 78.136719 L 177 297.136719 L 7.949219 297.136719 Z M 7.949219 78.136719 "/></clipPath><clipPath id="041d5f6d28"><path d="M 198 78.136719 L 367.199219 78.136719 L 367.199219 297.136719 L 198 297.136719 Z M 198 78.136719 "/></clipPath></defs><g id="e1757195fa"><g clip-rule="nonzero" clip-path="url(#ecba27a919)"><path style=" stroke:none;fill-rule:nonzero;fill:#00d492;fill-opacity:1;" d="M 153.148438 251.042969 C 118.121094 251.042969 89.617188 222.539062 89.617188 187.511719 C 89.617188 152.480469 118.121094 123.980469 153.148438 123.980469 C 165.914062 123.980469 176.253906 113.636719 176.253906 100.875 C 176.253906 88.113281 165.914062 77.769531 153.148438 77.769531 C 103.070312 77.769531 60.714844 111.496094 47.605469 157.425781 L 38.035156 157.425781 C 21.414062 157.425781 7.949219 170.898438 7.949219 187.511719 C 7.949219 204.121094 21.414062 217.597656 38.035156 217.597656 L 47.605469 217.597656 C 60.714844 263.523438 103.070312 297.25 153.148438 297.25 C 165.914062 297.25 176.253906 286.90625 176.253906 274.144531 C 176.253906 261.382812 165.914062 251.042969 153.148438 251.042969 Z M 153.148438 251.042969 "/></g><g clip-rule="nonzero" clip-path="url(#041d5f6d28)"><path style=" stroke:none;fill-rule:nonzero;fill:#00d492;fill-opacity:1;" d="M 336.988281 157.425781 L 326.972656 157.425781 C 313.863281 111.496094 271.507812 77.769531 221.425781 77.769531 C 208.664062 77.769531 198.324219 88.113281 198.324219 100.875 C 198.324219 113.636719 208.664062 123.980469 221.425781 123.980469 C 256.457031 123.980469 284.957031 152.480469 284.957031 187.511719 C 284.957031 222.539062 256.457031 251.042969 221.425781 251.042969 C 208.664062 251.042969 198.324219 261.382812 198.324219 274.144531 C 198.324219 286.90625 208.664062 297.25 221.425781 297.25 C 271.507812 297.25 313.863281 263.523438 326.972656 217.597656 L 336.988281 217.597656 C 353.601562 217.597656 367.074219 204.128906 367.074219 187.511719 C 367.074219 170.898438 353.601562 157.425781 336.988281 157.425781 Z M 336.988281 157.425781 "/></g><path style=" stroke:none;fill-rule:nonzero;fill:#3cdbc0;fill-opacity:1;" d="M 217.371094 217.589844 C 233.984375 217.589844 247.457031 204.121094 247.457031 187.511719 C 247.457031 170.898438 233.992188 157.425781 217.371094 157.425781 L 157.207031 157.425781 C 140.59375 157.425781 127.121094 170.890625 127.121094 187.511719 C 127.121094 204.128906 140.585938 217.589844 157.207031 217.589844 Z M 217.371094 217.589844 "/></g></svg>