<svg width="462" height="64" viewBox="0 0 462 64" fill="none" xmlns="http://www.w3.org/2000/svg">
<path d="M0 60.2083V1.16666H11.3958L32.375 31.7917L53.2917 1.16666H64.6042V60.2083H51.2708V24.7083L36.9375 45.625H27.6667L13.3333 24.625V60.2083H0Z" fill="#00D492"/>
<path d="M72.4292 60.2083L95.8875 1.16666H109.033L132.492 60.2083H118.138L114.179 50H90.7417L86.7833 60.2083H72.4292ZM94.2 39.4583H110.804L102.471 17.875L94.2 39.4583Z" fill="#00D492"/>
<path d="M164.517 61.3958C158.559 61.3958 153.273 60.0938 148.663 57.4792C144.049 54.8542 140.455 51.2396 137.872 46.625C135.288 42.0156 133.997 36.7031 133.997 30.6875C133.997 24.6771 135.288 19.3646 137.872 14.75C140.455 10.1406 144.038 6.53125 148.622 3.91667C153.205 1.30729 158.476 0 164.434 0C169.444 0 174.028 0.958333 178.184 2.875C182.351 4.78125 185.851 7.47396 188.684 10.9583C191.528 14.4479 193.517 18.5521 194.642 23.2708H180.809C179.684 20.0104 177.684 17.4375 174.809 15.5625C171.944 13.6771 168.632 12.7292 164.872 12.7292C161.549 12.7292 158.58 13.4948 155.955 15.0208C153.34 16.5365 151.309 18.6406 149.851 21.3333C148.392 24.0313 147.663 27.1458 147.663 30.6875C147.663 34.2292 148.392 37.3542 149.851 40.0625C151.309 42.7604 153.33 44.8646 155.913 46.375C158.507 47.8906 161.465 48.6458 164.788 48.6458C168.663 48.6458 172.059 47.6563 174.976 45.6667C177.903 43.6667 179.986 40.9792 181.226 37.6042H195.059C194.101 42.3854 192.184 46.5573 189.309 50.125C186.444 53.6979 182.892 56.4688 178.642 58.4375C174.403 60.4063 169.694 61.3958 164.517 61.3958Z" fill="#00D492"/>
<path d="M205.508 60.2083V1.16666H230.716C235.216 1.16666 239.122 1.98957 242.445 3.62499C245.763 5.24999 248.32 7.58332 250.112 10.625C251.914 13.6562 252.82 17.2812 252.82 21.5C252.82 25.8333 251.831 29.5625 249.862 32.6875C247.904 35.8021 245.154 38.1406 241.612 39.7083L253.841 60.2083H238.32L227.779 41.8333H218.924V60.2083H205.508ZM218.758 30.5208H228.945C232.263 30.5208 234.805 29.75 236.57 28.2083C238.346 26.6562 239.237 24.4479 239.237 21.5833C239.237 18.7239 238.346 16.5208 236.57 14.9792C234.805 13.4271 232.263 12.6458 228.945 12.6458H218.758V30.5208Z" fill="#00D492"/>
<path d="M363.297 60.2083V1.16666H400.318V13.3125H376.714V28.0833H398.13V39.875H376.714V60.2083H363.297Z" fill="#00D492"/>
<path d="M426.548 60.2083V39.5417L404.778 1.16666H420.048L427.382 14.8333L433.298 25.5417L439.111 14.8333L446.361 1.16666H461.632L439.944 39.375V60.2083H426.548Z" fill="#00D492"/>
<mask id="mask0_1_3" style="mask-type:luminance" maskUnits="userSpaceOnUse" x="254" y="0" width="51" height="64">
<path d="M254.865 0.0781403H304.318V63.9688H254.865V0.0781403Z" fill="white"/>
</mask>
<g mask="url(#mask0_1_3)">
<path d="M297.208 50.5C286.99 50.5 278.677 42.1875 278.677 31.9688C278.677 21.7552 286.99 13.4427 297.208 13.4427C300.927 13.4427 303.943 10.4271 303.943 6.70835C303.943 2.98439 300.927 -0.0312347 297.208 -0.0312347C282.604 -0.0312347 270.25 9.8021 266.427 23.1979H263.635C258.792 23.1979 254.865 27.125 254.865 31.9688C254.865 36.8177 258.792 40.7448 263.635 40.7448H266.427C270.25 54.1354 282.604 63.974 297.208 63.974C300.927 63.974 303.943 60.9584 303.943 57.2344C303.943 53.5156 300.927 50.5 297.208 50.5Z" fill="#00D492"/>
</g>
<mask id="mask1_1_3" style="mask-type:luminance" maskUnits="userSpaceOnUse" x="309" y="0" width="51" height="64">
<path d="M309.651 0.0781403H359.865V63.9688H309.651V0.0781403Z" fill="white"/>
</mask>
<g mask="url(#mask1_1_3)">
<path d="M350.818 23.1979H347.896C344.073 9.8021 331.719 -0.0312347 317.115 -0.0312347C313.396 -0.0312347 310.38 2.98439 310.38 6.70835C310.38 10.4271 313.396 13.4427 317.115 13.4427C327.333 13.4427 335.641 21.7552 335.641 31.9688C335.641 42.1875 327.333 50.5 317.115 50.5C313.396 50.5 310.38 53.5156 310.38 57.2344C310.38 60.9584 313.396 63.974 317.115 63.974C331.719 63.974 344.073 54.1354 347.896 40.7448H350.818C355.661 40.7448 359.589 36.8177 359.589 31.9688C359.589 27.125 355.661 23.1979 350.818 23.1979Z" fill="#00D492"/>
</g>
<path d="M315.932 40.7448C320.776 40.7448 324.708 36.8177 324.708 31.9688C324.708 27.125 320.781 23.1979 315.932 23.1979H298.391C293.547 23.1979 289.615 27.125 289.615 31.9688C289.615 36.8177 293.542 40.7448 298.391 40.7448H315.932Z" fill="#3CDBC0"/>
</svg>
